<?xml version="1.0" encoding="utf-8"?>
<!-- Generator: Adobe Illustrator 24.0.2, SVG Export Plug-In . SVG Version: 6.00 Build 0)  -->
<svg version="1.1" id="Capa_1" xmlns="http://www.w3.org/2000/svg" xmlns:xlink="http://www.w3.org/1999/xlink" x="0px" y="0px"
	 viewBox="0 0 512 512" style="enable-background:new 0 0 512 512;" xml:space="preserve">
<style type="text/css">
	.st0{fill:#1D1D1B;}
	.st1{fill:#E30613;}
	.st2{fill:#F39200;}
	.st3{fill:#1D71B8;}
	.st4{fill:#4072B0;}
	.st5{fill:#F4CD84;}
	.st6{fill:#A5704D;}
	.st7{fill:#D0AC6C;}
	.st8{fill:#CFAA6B;}
	.st9{fill:#6F432C;}
	.st10{fill:#DCB773;}
	.st11{fill:#BFE4FB;}
	.st12{fill:#C0E6FD;}
	.st13{fill:#977C47;}
</style>
<g>
	<path class="st0" d="M128.86,415.6c-4.7,0-9.41,0.06-14.11-0.02c-11.63-0.18-19.93-8.49-20.16-20.18
		c-0.08-3.94-0.03-7.89,0.01-11.84c0.01-1.64-0.3-2.88-2.1-3.56c-1.63-0.62-2.57,0.12-3.57,1.11c-2.9,2.9-5.75,5.83-8.71,8.67
		c-8.11,7.79-19.74,7.9-27.79,0.1c-7.08-6.86-14.05-13.85-20.91-20.94c-7.47-7.74-7.49-19.21-0.16-27.12c2.57-2.78,5.38-5.35,8-8.09
		c1.27-1.33,3.27-2.34,2.11-4.91c-1.15-2.56-3.29-1.7-5.11-1.76c-3.33-0.12-6.68,0.01-10.01-0.05c-11.92-0.2-20.25-8.58-20.31-20.47
		c-0.05-9.26-0.06-18.51,0.01-27.77c0.09-11.87,8.46-20.21,20.4-20.37c3.94-0.05,7.89-0.02,11.84,0c1.47,0.01,2.58-0.32,3.23-1.9
		c0.64-1.56,0.11-2.58-0.94-3.62c-2.8-2.78-5.61-5.55-8.36-8.38c-8.47-8.71-8.48-20.13,0-28.76c6.49-6.6,13.03-13.15,19.6-19.66
		c8.52-8.45,20.22-8.48,28.8-0.12c2.17,2.12,4.16,4.44,6.46,6.41c1.56,1.33,2.4,4.16,5.46,2.98c3.08-1.19,1.84-3.78,1.99-5.86
		c0.31-4.38-0.34-8.79,0.44-13.16c1.7-9.5,9.27-16.26,18.95-16.44c9.86-0.18,19.73-0.18,29.59,0c11.16,0.2,19.34,8.51,19.65,19.72
		c0.11,4.09,0.03,8.19,0.01,12.29c-0.01,1.63,0.35,2.86,2.13,3.55c1.66,0.65,2.57-0.16,3.55-1.14c2.79-2.79,5.51-5.65,8.36-8.36
		c8.85-8.42,20.15-8.31,28.76,0.22c6.46,6.41,12.93,12.83,19.33,19.3c8.81,8.9,8.72,20.5-0.16,29.44c-2.35,2.37-4.72,4.72-7.08,7.08
		c-1.26,1.27-2.8,2.31-1.81,4.61c1.01,2.35,2.93,1.75,4.65,1.78c3.49,0.07,6.98-0.03,10.47,0.03c11.96,0.21,20.26,8.54,20.33,20.43
		c0.06,9.26,0.08,18.51,0.01,27.77c-0.09,11.89-8.44,20.23-20.37,20.41c-3.79,0.06-7.59,0.01-11.38,0.02
		c-1.52,0-2.98-0.08-3.72,1.82c-0.69,1.78,0.06,2.85,1.2,3.98c2.81,2.76,5.64,5.52,8.37,8.36c8.14,8.47,8.05,20.05-0.24,28.46
		c-6.61,6.7-13.26,13.35-19.97,19.95c-8.18,8.04-19.85,8.08-28.13,0.15c-2.52-2.41-4.88-4.99-7.43-7.37
		c-1.32-1.24-2.21-3.38-4.83-2.37c-2.89,1.11-1.9,3.47-1.97,5.41c-0.13,3.33,0.03,6.68-0.05,10.01
		c-0.28,11.69-8.59,19.96-20.22,20.14C138.27,415.66,133.56,415.6,128.86,415.6z M233.67,292.7c-0.01,0-0.01,0-0.02,0
		c0-3.94-0.26-7.91,0.07-11.83c0.33-3.84-1.26-4.71-4.72-4.48c-3.77,0.26-7.59,0.15-11.37-0.01c-8.8-0.37-14.65-4.85-17.99-12.94
		c-3.33-8.08-2.43-15.43,3.47-21.94c2.75-3.03,5.7-5.89,8.69-8.69c1.87-1.76,2.4-3.1,0.23-5.17c-6.13-5.88-12.13-11.89-18.03-18.01
		c-2-2.08-3.35-1.88-5.17,0.1c-2.67,2.9-5.48,5.67-8.35,8.38c-6.54,6.19-14,7.27-22.26,3.89c-8.26-3.38-12.79-9.4-13.06-18.4
		c-0.12-4.09-0.11-8.19,0.01-12.29c0.07-2.55-0.89-3.46-3.47-3.42c-8.49,0.12-16.99,0.14-25.49,0c-2.83-0.05-3.75,0.99-3.64,3.72
		c0.16,3.94,0.11,7.89,0.01,11.83c-0.24,8.98-4.67,15.05-12.93,18.49c-8.23,3.42-15.71,2.43-22.28-3.72c-3.1-2.9-6.09-5.93-9.02-9
		c-1.49-1.56-2.69-1.54-4.18-0.03c-6.18,6.26-12.39,12.5-18.66,18.66c-1.67,1.64-1.71,2.89,0.01,4.52c3.19,3.02,6.38,6.07,9.31,9.35
		c5.86,6.58,6.57,14.01,3.17,22c-3.34,7.86-9.16,12.26-17.74,12.66c-4.24,0.19-8.5,0.16-12.74,0.02c-2.55-0.08-3.51,0.85-3.49,3.41
		c0.1,8.65,0.12,17.29,0.02,25.94c-0.03,2.69,1.16,3.37,3.59,3.29c4.09-0.13,8.19-0.14,12.29-0.01c9.02,0.29,14.94,4.95,18.28,13.21
		c3.27,8.1,2.19,15.44-3.77,21.9c-2.67,2.89-5.45,5.72-8.37,8.36c-2.14,1.93-2.44,3.33-0.17,5.49c6.03,5.76,11.95,11.65,17.7,17.69
		c2.18,2.29,3.55,1.94,5.49-0.15c2.99-3.22,6.05-6.41,9.4-9.25c6.58-5.59,13.9-5.97,21.67-2.56c7.48,3.28,11.83,8.8,12.32,17
		c0.27,4.54,0.17,9.1,0.1,13.65c-0.04,2.34,0.87,3.2,3.23,3.17c8.65-0.09,17.3-0.11,25.94,0.01c2.6,0.03,3.49-0.92,3.42-3.46
		c-0.13-4.09-0.09-8.19,0.02-12.29c0.24-9.03,4.82-15.01,13.08-18.38c8.25-3.37,15.72-2.28,22.25,3.92
		c2.86,2.71,5.69,5.47,8.35,8.37c1.85,2.01,3.17,2.12,5.16,0.05c5.89-6.12,11.93-12.1,18.03-18.01c1.84-1.78,1.96-3.07,0.07-4.85
		c-3.09-2.91-6.14-5.88-9-9.01c-5.95-6.51-6.81-13.9-3.47-21.95c3.34-8.05,9.21-12.58,18.02-12.91c4.09-0.15,8.2-0.18,12.28,0
		c2.75,0.12,3.86-0.8,3.76-3.62C233.56,301.2,233.67,296.95,233.67,292.7z"/>
	<path class="st1" d="M233.67,292.7c0,4.25-0.11,8.5,0.04,12.74c0.1,2.81-1.01,3.74-3.76,3.62c-4.09-0.18-8.19-0.16-12.28,0
		c-8.81,0.32-14.68,4.85-18.02,12.91c-3.34,8.04-2.47,15.44,3.47,21.95c2.86,3.13,5.91,6.1,9,9.01c1.89,1.78,1.77,3.06-0.07,4.85
		c-6.1,5.91-12.14,11.89-18.03,18.01c-1.99,2.06-3.31,1.96-5.16-0.05c-2.66-2.9-5.49-5.66-8.35-8.37c-6.53-6.2-14-7.29-22.25-3.92
		c-8.26,3.37-12.84,9.35-13.08,18.38c-0.11,4.09-0.14,8.19-0.02,12.29c0.08,2.53-0.82,3.49-3.42,3.46
		c-8.65-0.12-17.29-0.1-25.94-0.01c-2.36,0.03-3.27-0.83-3.23-3.17c0.07-4.55,0.18-9.11-0.1-13.65c-0.49-8.21-4.85-13.72-12.32-17
		c-7.77-3.41-15.09-3.03-21.67,2.56c-3.34,2.84-6.4,6.04-9.4,9.25c-1.94,2.09-3.32,2.44-5.49,0.15
		c-5.75-6.04-11.67-11.93-17.7-17.69c-2.27-2.17-1.97-3.56,0.17-5.49c2.92-2.64,5.7-5.46,8.37-8.36c5.96-6.45,7.04-13.8,3.77-21.9
		c-3.33-8.26-9.25-12.92-18.28-13.21c-4.09-0.13-8.19-0.12-12.29,0.01c-2.43,0.08-3.62-0.6-3.59-3.29
		c0.1-8.65,0.08-17.29-0.02-25.94c-0.03-2.57,0.93-3.5,3.49-3.41c4.24,0.14,8.5,0.18,12.74-0.02c8.58-0.39,14.4-4.8,17.74-12.66
		c3.39-7.99,2.69-15.43-3.17-22c-2.92-3.28-6.11-6.33-9.31-9.35c-1.72-1.63-1.69-2.88-0.01-4.52c6.27-6.17,12.48-12.41,18.66-18.66
		c1.5-1.51,2.69-1.53,4.18,0.03c2.93,3.07,5.92,6.1,9.02,9c6.57,6.15,14.05,7.14,22.28,3.72c8.26-3.43,12.69-9.51,12.93-18.49
		c0.11-3.94,0.15-7.89-0.01-11.83c-0.11-2.73,0.82-3.76,3.64-3.72c8.49,0.14,16.99,0.12,25.49,0c2.58-0.04,3.54,0.87,3.47,3.42
		c-0.12,4.09-0.13,8.19-0.01,12.29c0.27,9,4.79,15.02,13.06,18.4c8.26,3.38,15.72,2.3,22.26-3.89c2.86-2.71,5.68-5.48,8.35-8.38
		c1.82-1.98,3.17-2.18,5.17-0.1c5.89,6.12,11.9,12.13,18.03,18.01c2.16,2.08,1.64,3.41-0.23,5.17c-2.99,2.8-5.94,5.66-8.69,8.69
		c-5.9,6.51-6.8,13.87-3.47,21.94c3.34,8.1,9.19,12.58,17.99,12.94c3.79,0.16,7.6,0.27,11.37,0.01c3.46-0.23,5.05,0.64,4.72,4.48
		c-0.34,3.92-0.07,7.88-0.07,11.83C233.66,292.7,233.67,292.7,233.67,292.7z M79.99,292.57c-0.12,26.85,21.81,48.92,48.75,49.07
		c26.59,0.15,48.83-21.75,49.06-48.31c0.23-27.17-21.74-49.48-48.76-49.51C102.06,243.79,80.11,265.6,79.99,292.57z"/>
	<path class="st0" d="M79.99,292.57c0.12-26.97,22.07-48.78,49.05-48.75c27.02,0.03,48.99,22.34,48.76,49.51
		c-0.23,26.56-22.47,48.46-49.06,48.31C101.79,341.48,79.86,319.41,79.99,292.57z M159.77,292.61
		c-0.06-16.96-14.12-30.87-31.11-30.77c-16.77,0.1-30.66,14.03-30.66,30.75c-0.01,17.02,13.93,31.01,30.89,31
		C145.87,323.58,159.83,309.58,159.77,292.61z"/>
</g>
<g>
	<path class="st0" d="M363.83,214.63c-2.18,0-4.37,0.03-6.55-0.01c-5.4-0.08-9.25-3.94-9.36-9.37c-0.04-1.83-0.01-3.66,0-5.5
		c0.01-0.76-0.14-1.34-0.97-1.65c-0.76-0.29-1.2,0.05-1.66,0.52c-1.35,1.34-2.67,2.71-4.04,4.03c-3.77,3.62-9.17,3.67-12.91,0.05
		c-3.29-3.19-6.53-6.43-9.71-9.72c-3.47-3.59-3.48-8.92-0.08-12.59c1.2-1.29,2.5-2.48,3.72-3.76c0.59-0.62,1.52-1.09,0.98-2.28
		c-0.53-1.19-1.53-0.79-2.37-0.82c-1.55-0.06-3.1,0-4.65-0.02c-5.54-0.09-9.4-3.98-9.43-9.51c-0.02-4.3-0.03-8.6,0.01-12.9
		c0.04-5.51,3.93-9.38,9.47-9.46c1.83-0.03,3.66-0.01,5.5,0c0.68,0,1.2-0.15,1.5-0.88c0.3-0.73,0.05-1.2-0.43-1.68
		c-1.3-1.29-2.6-2.58-3.88-3.89c-3.93-4.05-3.94-9.35,0-13.35c3.01-3.06,6.05-6.11,9.1-9.13c3.96-3.92,9.39-3.94,13.38-0.05
		c1.01,0.98,1.93,2.06,3,2.98c0.72,0.62,1.12,1.93,2.54,1.38c1.43-0.55,0.85-1.76,0.92-2.72c0.14-2.03-0.16-4.08,0.21-6.11
		c0.79-4.41,4.31-7.55,8.8-7.64c4.58-0.08,9.16-0.08,13.74,0c5.18,0.09,8.98,3.95,9.13,9.16c0.05,1.9,0.02,3.81,0.01,5.71
		c0,0.76,0.16,1.33,0.99,1.65c0.77,0.3,1.19-0.07,1.65-0.53c1.29-1.3,2.56-2.62,3.88-3.88c4.11-3.91,9.36-3.86,13.36,0.1
		c3,2.98,6,5.96,8.98,8.96c4.09,4.13,4.05,9.52-0.08,13.67c-1.09,1.1-2.19,2.19-3.29,3.29c-0.59,0.59-1.3,1.07-0.84,2.14
		c0.47,1.09,1.36,0.81,2.16,0.83c1.62,0.03,3.24-0.01,4.86,0.01c5.55,0.1,9.41,3.96,9.44,9.49c0.03,4.3,0.04,8.6,0,12.9
		c-0.04,5.52-3.92,9.4-9.46,9.48c-1.76,0.03-3.52,0-5.29,0.01c-0.71,0-1.38-0.04-1.73,0.85c-0.32,0.83,0.03,1.33,0.56,1.85
		c1.31,1.28,2.62,2.56,3.89,3.88c3.78,3.93,3.74,9.31-0.11,13.22c-3.07,3.11-6.16,6.2-9.27,9.26c-3.8,3.73-9.22,3.75-13.07,0.07
		c-1.17-1.12-2.27-2.32-3.45-3.42c-0.62-0.57-1.02-1.57-2.25-1.1c-1.34,0.52-0.88,1.61-0.92,2.51c-0.06,1.55,0.01,3.1-0.02,4.65
		c-0.13,5.43-3.99,9.27-9.39,9.35C368.2,214.66,366.02,214.63,363.83,214.63z M412.51,157.56
		C412.51,157.56,412.51,157.56,412.51,157.56c-0.01-1.83-0.13-3.67,0.03-5.49c0.15-1.78-0.58-2.19-2.19-2.08
		c-1.75,0.12-3.52,0.07-5.28-0.01c-4.09-0.17-6.8-2.25-8.35-6.01c-1.55-3.75-1.13-7.16,1.61-10.19c1.28-1.41,2.65-2.73,4.03-4.03
		c0.87-0.82,1.11-1.44,0.11-2.4c-2.85-2.73-5.63-5.52-8.37-8.36c-0.93-0.97-1.56-0.87-2.4,0.05c-1.24,1.35-2.55,2.63-3.88,3.89
		c-3.04,2.87-6.5,3.38-10.34,1.81c-3.84-1.57-5.94-4.37-6.06-8.54c-0.06-1.9-0.05-3.81,0-5.71c0.03-1.18-0.41-1.61-1.61-1.59
		c-3.94,0.06-7.89,0.07-11.84,0c-1.31-0.02-1.74,0.46-1.69,1.73c0.07,1.83,0.05,3.66,0,5.49c-0.11,4.17-2.17,6.99-6,8.59
		c-3.82,1.59-7.29,1.13-10.35-1.73c-1.44-1.35-2.83-2.75-4.19-4.18c-0.69-0.73-1.25-0.72-1.94-0.01c-2.87,2.91-5.75,5.8-8.67,8.67
		c-0.78,0.76-0.79,1.34,0.01,2.1c1.48,1.4,2.96,2.82,4.32,4.34c2.72,3.05,3.05,6.51,1.47,10.22c-1.55,3.65-4.25,5.7-8.24,5.88
		c-1.97,0.09-3.95,0.07-5.92,0.01c-1.19-0.04-1.63,0.39-1.62,1.58c0.05,4.02,0.05,8.03,0.01,12.05c-0.01,1.25,0.54,1.56,1.67,1.53
		c1.9-0.06,3.81-0.06,5.71,0c4.19,0.14,6.94,2.3,8.49,6.13c1.52,3.76,1.02,7.17-1.75,10.17c-1.24,1.34-2.53,2.66-3.89,3.88
		c-0.99,0.9-1.13,1.55-0.08,2.55c2.8,2.68,5.55,5.41,8.22,8.22c1.01,1.06,1.65,0.9,2.55-0.07c1.39-1.49,2.81-2.98,4.36-4.3
		c3.05-2.6,6.46-2.77,10.06-1.19c3.47,1.52,5.5,4.09,5.72,7.9c0.13,2.11,0.08,4.23,0.04,6.34c-0.02,1.09,0.4,1.48,1.5,1.47
		c4.02-0.04,8.03-0.05,12.05,0.01c1.21,0.02,1.62-0.43,1.59-1.61c-0.06-1.9-0.04-3.8,0.01-5.71c0.11-4.19,2.24-6.97,6.07-8.54
		c3.83-1.56,7.3-1.06,10.33,1.82c1.33,1.26,2.64,2.54,3.88,3.89c0.86,0.93,1.47,0.98,2.39,0.02c2.74-2.84,5.54-5.62,8.37-8.36
		c0.85-0.83,0.91-1.43,0.03-2.25c-1.44-1.35-2.85-2.73-4.18-4.18c-2.76-3.02-3.16-6.46-1.61-10.19c1.55-3.74,4.28-5.84,8.37-5.99
		c1.9-0.07,3.81-0.08,5.71,0c1.28,0.06,1.79-0.37,1.75-1.68C412.46,161.51,412.51,159.53,412.51,157.56z"/>
	<path class="st2" d="M412.51,157.56c0,1.97-0.05,3.95,0.02,5.92c0.05,1.31-0.47,1.74-1.75,1.68c-1.9-0.08-3.81-0.07-5.71,0
		c-4.09,0.15-6.82,2.25-8.37,5.99c-1.55,3.73-1.15,7.17,1.61,10.19c1.33,1.45,2.74,2.84,4.18,4.18c0.88,0.82,0.82,1.42-0.03,2.25
		c-2.83,2.74-5.64,5.52-8.37,8.36c-0.92,0.96-1.54,0.91-2.39-0.02c-1.24-1.35-2.55-2.63-3.88-3.89c-3.03-2.88-6.5-3.38-10.33-1.82
		c-3.83,1.56-5.96,4.34-6.07,8.54c-0.05,1.9-0.07,3.81-0.01,5.71c0.04,1.18-0.38,1.62-1.59,1.61c-4.02-0.05-8.03-0.05-12.05-0.01
		c-1.1,0.01-1.52-0.38-1.5-1.47c0.03-2.11,0.08-4.23-0.04-6.34c-0.23-3.81-2.25-6.37-5.72-7.9c-3.61-1.58-7.01-1.41-10.06,1.19
		c-1.55,1.32-2.97,2.8-4.36,4.3c-0.9,0.97-1.54,1.13-2.55,0.07c-2.67-2.8-5.42-5.54-8.22-8.22c-1.05-1.01-0.91-1.65,0.08-2.55
		c1.36-1.22,2.65-2.54,3.89-3.88c2.77-3,3.27-6.41,1.75-10.17c-1.55-3.83-4.3-6-8.49-6.13c-1.9-0.06-3.81-0.06-5.71,0
		c-1.13,0.04-1.68-0.28-1.67-1.53c0.05-4.02,0.04-8.03-0.01-12.05c-0.01-1.19,0.43-1.62,1.62-1.58c1.97,0.07,3.95,0.08,5.92-0.01
		c3.99-0.18,6.69-2.23,8.24-5.88c1.58-3.71,1.25-7.16-1.47-10.22c-1.36-1.52-2.84-2.94-4.32-4.34c-0.8-0.76-0.78-1.34-0.01-2.1
		c2.91-2.86,5.79-5.76,8.67-8.67c0.69-0.7,1.25-0.71,1.94,0.01c1.36,1.43,2.75,2.83,4.19,4.18c3.05,2.86,6.52,3.32,10.35,1.73
		c3.83-1.59,5.89-4.42,6-8.59c0.05-1.83,0.07-3.67,0-5.49c-0.05-1.27,0.38-1.75,1.69-1.73c3.94,0.06,7.89,0.06,11.84,0
		c1.2-0.02,1.64,0.41,1.61,1.59c-0.06,1.9-0.06,3.81,0,5.71c0.12,4.18,2.23,6.97,6.06,8.54c3.84,1.57,7.3,1.07,10.34-1.81
		c1.33-1.26,2.64-2.55,3.88-3.89c0.85-0.92,1.47-1.01,2.4-0.05c2.74,2.84,5.53,5.63,8.37,8.36c1.01,0.96,0.76,1.59-0.11,2.4
		c-1.39,1.3-2.76,2.63-4.03,4.03c-2.74,3.03-3.16,6.44-1.61,10.19c1.55,3.76,4.27,5.84,8.35,6.01c1.76,0.07,3.53,0.12,5.28,0.01
		c1.61-0.11,2.35,0.3,2.19,2.08C412.38,153.88,412.5,155.73,412.51,157.56C412.51,157.56,412.51,157.56,412.51,157.56z
		 M341.14,157.5c-0.06,12.47,10.13,22.72,22.64,22.79c12.35,0.07,22.68-10.1,22.78-22.44c0.11-12.62-10.1-22.98-22.64-22.99
		C351.39,134.84,341.2,144.97,341.14,157.5z"/>
	<path class="st0" d="M341.14,157.5c0.06-12.52,10.25-22.65,22.78-22.64c12.55,0.01,22.75,10.38,22.64,22.99
		c-0.11,12.34-10.44,22.51-22.78,22.44C351.26,180.21,341.08,169.96,341.14,157.5z M378.19,157.52
		c-0.03-7.88-6.56-14.34-14.45-14.29c-7.79,0.05-14.24,6.52-14.24,14.28c0,7.91,6.47,14.4,14.34,14.4
		C371.74,171.9,378.22,165.39,378.19,157.52z"/>
</g>
<g>
	<path class="st0" d="M401.52,469.15c-3.43,0-6.86,0.04-10.29-0.01c-8.48-0.13-14.53-6.19-14.7-14.71
		c-0.06-2.88-0.02-5.75,0.01-8.63c0.01-1.19-0.22-2.1-1.53-2.59c-1.19-0.45-1.88,0.09-2.6,0.81c-2.11,2.11-4.19,4.25-6.35,6.32
		c-5.92,5.68-14.39,5.76-20.26,0.07c-5.17-5-10.25-10.1-15.24-15.27c-5.45-5.64-5.46-14-0.12-19.77c1.88-2.03,3.93-3.9,5.83-5.9
		c0.93-0.97,2.38-1.71,1.54-3.58c-0.84-1.87-2.4-1.24-3.73-1.28c-2.43-0.09-4.87,0.01-7.3-0.03c-8.69-0.15-14.76-6.25-14.81-14.93
		c-0.03-6.75-0.04-13.5,0.01-20.25c0.06-8.66,6.17-14.73,14.87-14.86c2.88-0.04,5.75-0.01,8.63,0c1.07,0,1.88-0.23,2.36-1.38
		c0.47-1.14,0.08-1.88-0.68-2.64c-2.04-2.03-4.09-4.05-6.09-6.11c-6.17-6.35-6.19-14.68,0-20.97c4.73-4.81,9.5-9.59,14.29-14.34
		c6.21-6.16,14.74-6.18,21-0.08c1.58,1.54,3.03,3.24,4.71,4.67c1.14,0.97,1.75,3.03,3.98,2.17c2.25-0.87,1.34-2.76,1.45-4.28
		c0.22-3.19-0.25-6.41,0.32-9.6c1.24-6.93,6.76-11.86,13.82-11.99c7.19-0.13,14.39-0.13,21.58,0c8.14,0.15,14.1,6.2,14.33,14.38
		c0.08,2.99,0.03,5.97,0.01,8.96c-0.01,1.19,0.25,2.08,1.55,2.59c1.21,0.47,1.87-0.12,2.59-0.83c2.03-2.03,4.02-4.12,6.1-6.1
		c6.45-6.14,14.69-6.06,20.97,0.16c4.71,4.68,9.42,9.35,14.1,14.07c6.42,6.49,6.36,14.95-0.12,21.47c-1.72,1.73-3.44,3.44-5.16,5.16
		c-0.92,0.92-2.04,1.69-1.32,3.36c0.73,1.71,2.14,1.28,3.39,1.3c2.54,0.05,5.09-0.02,7.63,0.02c8.72,0.16,14.77,6.22,14.82,14.9
		c0.04,6.75,0.06,13.5,0.01,20.25c-0.06,8.67-6.15,14.75-14.85,14.88c-2.77,0.04-5.53,0-8.3,0.01c-1.11,0-2.17-0.06-2.71,1.33
		c-0.51,1.3,0.04,2.08,0.88,2.9c2.05,2.02,4.11,4.03,6.1,6.1c5.93,6.17,5.87,14.62-0.18,20.75c-4.82,4.88-9.67,9.74-14.56,14.54
		c-5.97,5.86-14.47,5.89-20.51,0.11c-1.84-1.76-3.56-3.64-5.42-5.38c-0.97-0.9-1.61-2.47-3.53-1.73c-2.11,0.81-1.38,2.53-1.44,3.95
		c-0.1,2.43,0.02,4.87-0.04,7.3c-0.21,8.52-6.26,14.56-14.74,14.68C408.38,469.19,404.95,469.15,401.52,469.15z M477.94,379.54
		c0,0-0.01,0-0.01,0c0-2.88-0.19-5.77,0.05-8.62c0.24-2.8-0.92-3.44-3.44-3.27c-2.75,0.19-5.53,0.11-8.29-0.01
		c-6.41-0.27-10.68-3.54-13.12-9.44c-2.43-5.89-1.77-11.25,2.53-16c2-2.21,4.16-4.29,6.33-6.33c1.37-1.28,1.75-2.26,0.17-3.77
		c-4.47-4.29-8.85-8.67-13.14-13.13c-1.46-1.52-2.44-1.37-3.77,0.07c-1.95,2.11-4,4.14-6.09,6.11c-4.77,4.51-10.21,5.3-16.23,2.83
		c-6.03-2.47-9.33-6.86-9.52-13.42c-0.09-2.98-0.08-5.97,0-8.96c0.05-1.86-0.65-2.52-2.53-2.49c-6.19,0.09-12.39,0.1-18.58,0
		c-2.06-0.03-2.74,0.72-2.66,2.71c0.11,2.87,0.08,5.75,0.01,8.63c-0.18,6.55-3.4,10.98-9.43,13.48c-6,2.5-11.45,1.77-16.25-2.71
		c-2.26-2.12-4.44-4.32-6.58-6.56c-1.09-1.14-1.96-1.12-3.05-0.02c-4.51,4.56-9.03,9.11-13.61,13.61c-1.22,1.2-1.25,2.1,0.01,3.3
		c2.33,2.2,4.66,4.43,6.79,6.82c4.27,4.8,4.79,10.22,2.31,16.04c-2.43,5.73-6.68,8.94-12.94,9.23c-3.09,0.14-6.2,0.11-9.29,0.01
		c-1.86-0.06-2.56,0.62-2.54,2.49c0.07,6.3,0.08,12.61,0.01,18.91c-0.02,1.96,0.85,2.45,2.62,2.4c2.98-0.09,5.97-0.1,8.96,0
		c6.58,0.21,10.9,3.61,13.33,9.63c2.39,5.91,1.6,11.26-2.75,15.97c-1.95,2.11-3.97,4.17-6.1,6.09c-1.56,1.41-1.78,2.43-0.13,4.01
		c4.4,4.2,8.71,8.5,12.91,12.9c1.59,1.67,2.59,1.41,4.01-0.11c2.18-2.35,4.41-4.68,6.85-6.75c4.8-4.08,10.14-4.35,15.8-1.87
		c5.45,2.39,8.63,6.41,8.99,12.4c0.2,3.31,0.12,6.63,0.07,9.95c-0.03,1.71,0.63,2.33,2.35,2.31c6.3-0.07,12.61-0.08,18.91,0.01
		c1.89,0.03,2.55-0.67,2.49-2.52c-0.09-2.98-0.07-5.97,0.01-8.96c0.18-6.58,3.52-10.95,9.53-13.4c6.02-2.45,11.46-1.66,16.22,2.86
		c2.09,1.98,4.15,3.99,6.09,6.11c1.35,1.47,2.31,1.54,3.76,0.04c4.29-4.46,8.7-8.82,13.14-13.13c1.34-1.3,1.43-2.24,0.05-3.53
		c-2.26-2.12-4.48-4.29-6.57-6.57c-4.34-4.75-4.97-10.14-2.53-16c2.44-5.87,6.72-9.17,13.14-9.41c2.98-0.11,5.98-0.13,8.96,0
		c2.01,0.09,2.81-0.59,2.74-2.64C477.86,385.73,477.94,382.63,477.94,379.54z"/>
	<path class="st3" d="M477.94,379.54c0,3.1-0.08,6.2,0.03,9.29c0.07,2.05-0.73,2.73-2.74,2.64c-2.98-0.13-5.97-0.11-8.96,0
		c-6.43,0.24-10.71,3.54-13.14,9.41c-2.43,5.86-1.8,11.26,2.53,16c2.09,2.28,4.31,4.45,6.57,6.57c1.38,1.29,1.29,2.23-0.05,3.53
		c-4.45,4.31-8.85,8.67-13.14,13.13c-1.45,1.51-2.41,1.43-3.76-0.04c-1.94-2.12-4.01-4.13-6.09-6.11
		c-4.76-4.52-10.2-5.31-16.22-2.86c-6.02,2.46-9.36,6.82-9.53,13.4c-0.08,2.98-0.1,5.97-0.01,8.96c0.06,1.85-0.6,2.55-2.49,2.52
		c-6.3-0.08-12.61-0.08-18.91-0.01c-1.72,0.02-2.38-0.6-2.35-2.31c0.05-3.32,0.13-6.64-0.07-9.95c-0.36-5.98-3.53-10.01-8.99-12.4
		c-5.66-2.48-11.01-2.21-15.8,1.87c-2.44,2.07-4.67,4.4-6.85,6.75c-1.42,1.52-2.42,1.78-4.01,0.11c-4.19-4.4-8.51-8.7-12.91-12.9
		c-1.65-1.58-1.43-2.6,0.13-4.01c2.13-1.92,4.15-3.98,6.1-6.09c4.35-4.71,5.13-10.06,2.75-15.97c-2.43-6.02-6.75-9.42-13.33-9.63
		c-2.98-0.1-5.97-0.09-8.96,0c-1.77,0.06-2.64-0.44-2.62-2.4c0.07-6.3,0.06-12.61-0.01-18.91c-0.02-1.87,0.68-2.55,2.54-2.49
		c3.09,0.1,6.2,0.13,9.29-0.01c6.26-0.29,10.5-3.5,12.94-9.23c2.47-5.83,1.96-11.25-2.31-16.04c-2.13-2.39-4.46-4.61-6.79-6.82
		c-1.26-1.19-1.23-2.1-0.01-3.3c4.57-4.5,9.1-9.05,13.61-13.61c1.09-1.1,1.96-1.12,3.05,0.02c2.14,2.24,4.32,4.45,6.58,6.56
		c4.79,4.49,10.24,5.21,16.25,2.71c6.02-2.5,9.25-6.93,9.43-13.48c0.08-2.87,0.11-5.76-0.01-8.63c-0.08-1.99,0.6-2.75,2.66-2.71
		c6.19,0.1,12.39,0.09,18.58,0c1.88-0.03,2.58,0.64,2.53,2.49c-0.09,2.98-0.09,5.97,0,8.96c0.2,6.56,3.49,10.95,9.52,13.42
		c6.02,2.47,11.46,1.68,16.23-2.83c2.09-1.98,4.14-4,6.09-6.11c1.33-1.44,2.31-1.59,3.77-0.07c4.3,4.46,8.68,8.84,13.14,13.13
		c1.58,1.51,1.2,2.49-0.17,3.77c-2.18,2.04-4.33,4.12-6.33,6.33c-4.3,4.75-4.96,10.11-2.53,16c2.43,5.9,6.7,9.17,13.12,9.44
		c2.76,0.12,5.54,0.2,8.29,0.01c2.53-0.17,3.68,0.47,3.44,3.27c-0.25,2.85-0.05,5.75-0.05,8.62
		C477.94,379.54,477.94,379.54,477.94,379.54z M365.88,379.44c-0.09,19.57,15.9,35.67,35.55,35.78
		c19.39,0.11,35.61-15.86,35.77-35.23c0.17-19.81-15.85-36.08-35.55-36.1C381.98,343.87,365.97,359.78,365.88,379.44z"/>
	<path class="st0" d="M365.88,379.44c0.09-19.66,16.09-35.57,35.77-35.55c19.7,0.02,35.72,16.29,35.55,36.1
		c-0.17,19.37-16.38,35.34-35.77,35.23C381.78,415.11,365.8,399.01,365.88,379.44z M424.06,379.47
		c-0.04-12.37-10.3-22.51-22.68-22.44c-12.22,0.07-22.35,10.23-22.36,22.42c-0.01,12.41,10.16,22.61,22.52,22.6
		C413.92,402.05,424.1,391.84,424.06,379.47z"/>
</g>
<g>
	<path class="st0" d="M161.2,214.27c-4.11-20.55-8.69-40.84-5.86-62.28c4.9-37.08,31.22-69.28,67.2-78.77
		c8.2-2.16,16.61-4.32,25.81-2.85c9.42,1.51,19.05-2.82,29.02,0.31c14.83,4.67,27.35,12.03,35.76,25.31
		c2.64,4.17,5.11,5.49,10.65,5.87c16.28,1.13,28.6,10.33,36.58,24.39c10.93,19.27,10.66,40.05,7.27,61.26
		c-1.44,9.03-5.71,17.57-4.74,27c-4.17,2.86-3.75,7.95-5.8,11.85c-2.69,8.44-5.11,17-9.72,24.68c-2.57-0.02-5.14-0.03-7.71-0.05
		c-0.55-0.6-1.11-1.21-1.66-1.82c-0.12-12.41-0.41-24.83-0.31-37.24c0.19-22.53-9.06-40.48-25.58-55.32
		c-4.36-3.91-6.88-3.57-10.83,0.58c-11.68,12.27-26.15,20.14-42.43,24.55c-11.74,3.18-23.82,3.69-35.93,4.12
		c-25.64,0.9-36.34,12.12-36.44,37.53c-0.03,8.59-0.22,17.19-0.33,25.78c-0.55,0.61-1.11,1.21-1.66,1.82c-3,0.02-6,0.04-9,0.06
		c-0.83-0.67-1.66-1.33-2.5-2l0.05,0.04c-0.76-7.82-3.59-14.89-7.75-21.49C165.19,222.77,163.11,218.54,161.2,214.27z
		 M175.28,215.86c1.62-25.45,17.37-36.22,39.83-40.6c4.79-0.94,9.51-0.87,14.27-0.85c28.31,0.14,52.42-9.08,70.04-32
		c3.19-4.15,5.46-4.09,9.28-1.64c13.08,8.41,23.35,19.14,30.96,32.93c6.51,11.8,7.14,24.83,10.4,39.41
		c6.25-20.21,10.56-38.76,8.56-57.98c-2.81-26.93-17.83-41.5-44.23-43.89c-4.04-0.37-6.2-1.93-8.09-5.39
		c-3.18-5.83-7-11.14-12.61-15.22c-17.59-12.79-37.27-13.6-57.38-9.69c-15.71,3.05-30.39,8.85-42.74,19.93
		C161.13,129.95,159.07,176.58,175.28,215.86z"/>
	<path class="st0" d="M161.2,214.27c1.91,4.28,3.99,8.5,4.07,13.34c0.02,8.09,0.74,15.92,7.75,21.48c0,0-0.05-0.04-0.05-0.04
		c0.83,0.67,1.66,1.33,2.5,2c3-0.02,6-0.04,9-0.06c0,0,0.84,0.01,0.84,0.01l0.84-0.08c0.08,26.97,8.85,49.71,30.98,66.62
		c11.88,9.08,26.75,11.51,39.29,19.09c2.79,1.68,8.27,1.67,11.11,0.02c12.66-7.38,27.46-10.27,39.33-19.18
		c22.22-16.67,30.92-39.61,31.12-66.55l0.84,0.08l0.84-0.01c2.57,0.02,5.14,0.03,7.71,0.05c8.05-1.18,13.29-14.5,9.72-24.68
		c2.05-3.89,1.63-8.99,5.8-11.85c7.34,4.26,7.69,11.38,6.68,18.39c-1.88,13.02-7.23,24.48-18.15,32.48c-2.89,2.11-3.92,4.52-4.6,7.8
		c-3.84,18.66-12.68,34.58-26.85,47.39c-2.54,2.3-4.06,4.66-3.9,8.2c0.3,6.68,0.35,13.37,0.5,20.06c-0.09,3.68-0.18,7.36-0.28,11.04
		c-8.72,6.68-17.45,13.36-26.18,20.04c-5.09-5.18-10.34,1.86-15.47-0.21c5.21-6.54,11.95-11.67,18.87-15.72
		c13.06-7.64,13.02-18.56,10.75-31.67c-8.83,3.95-17.5,7.14-25.47,11.58c-11.4,6.34-22.05,6.32-33.46,0.01
		c-8.12-4.49-16.97-7.68-25.2-11.32c-4.34,15.13,0.16,25.56,12.69,33.2c6.14,3.74,12.04,8.17,16.65,13.93
		c-5.06,2.16-10.31-5.08-15.31,0.31c-8.78-6.71-17.55-13.42-26.33-20.14c-0.09-3.68-0.19-7.37-0.28-11.05
		c0.15-6.37,0.17-12.75,0.51-19.11c0.2-3.85-1.11-6.64-4.06-9.12c-6.41-5.39-11.86-11.82-15.71-19.14
		c-9.12-17.35-14.94-35.99-27.92-51.86C149.48,236.26,152.21,222.8,161.2,214.27z"/>
	<path class="st0" d="M207.55,348.82c0.09,3.68,0.19,7.37,0.28,11.05c-3.59,0.45-7.05,0.43-5.25,6.13
		c3.73,11.77,7.02,23.68,10.18,35.61c1.35,5.09,3.33,4.95,7.36,2.55c6.47-3.87,11.94-9.53,19.59-11.36
		c3.87,1.35,4.26,4.52,4.15,7.94c-11.61,7.63-23.21,15.26-35.53,23.36c-5.46-18.74-10.85-36.06-15.42-53.6
		c-1.66-6.37-4.33-7.3-10.11-5.68c-38.77,10.88-75.41,52.47-80.75,91.63c-1.07,7.84,0.21,11.36,9.56,11.24
		c40.23-0.51,80.47-0.18,120.7-0.16c0.35,2.82-0.63,5.32-1.82,7.78c-0.06,0.62-0.08,1.24-0.06,1.86
		c-44.38,0.12-88.77,0.1-133.15,0.5c-7.33,0.07-7.56-3.65-7.1-8.94c4.5-52.19,31.53-88.34,78.65-109.95
		C181.07,353.16,194.13,350.12,207.55,348.82z"/>
	<path class="st0" d="M316.28,359.86c0.09-3.68,0.19-7.36,0.28-11.04c67.73,6.66,114.05,61.46,117.31,119.9
		c0.3,5.41,0.15,9-7.12,8.94c-44.36-0.38-88.72-0.37-133.09-0.49c0.02-0.62,0-1.24-0.06-1.85c-1.19-2.46-2.17-4.96-1.82-7.78
		c39.9-0.02,79.81-0.04,119.71-0.07c11.28-0.01,12.49-1.22,10.12-11.9c-9.46-42.66-34.45-72.36-74.94-88.83
		c-12.41-5.05-12.9-4.63-16.72,8.41c-4.68,15.99-9.29,32-14.23,49.02c-12.71-8.39-24.1-15.91-35.48-23.42
		c-0.11-3.43,0.28-6.59,4.14-7.94c7.4,1.62,12.71,6.99,18.79,10.85c4.9,3.11,7,2.92,8.51-2.92c2.92-11.34,5.92-22.69,9.56-33.82
		C323.07,361.37,321.01,360.04,316.28,359.86z"/>
	<path class="st0" d="M291.79,467.53c-0.35,2.82,0.63,5.32,1.82,7.77c-0.62,0.62-1.23,1.24-1.85,1.86c-19.81,0-39.61,0-59.42,0
		c-0.62-0.62-1.23-1.24-1.85-1.86c1.19-2.46,2.17-4.96,1.82-7.78c6.77-14.39,9.94-30.07,15.92-44.69
		c3.64-8.89,2.03-15.71-4.38-22.09c0.11-3.43-0.28-6.6-4.14-7.94c0.84-5.43-2.37-9.11-5.56-12.79c5-5.38,10.25,1.86,15.31-0.31
		c0,0-0.03-0.17-0.03-0.17c0.68,0.5,1.36,1.01,2.05,1.51c7.04,3.17,14.09,3.17,21.13,0c0.68-0.5,1.37-1.01,2.05-1.51l-0.03,0.16
		c5.13,2.07,10.38-4.97,15.47,0.21c-3.26,3.7-6.56,7.37-5.71,12.89c-3.87,1.35-4.25,4.52-4.14,7.94c-4.01,4.47-8.28,9.33-6.19,15.67
		C279.72,433.53,284.32,451.03,291.79,467.53z"/>
	<path class="st4" d="M230.5,475.3c0.62,0.62,1.23,1.24,1.85,1.86c-0.63,0-1.27,0-1.9,0C230.42,476.54,230.44,475.92,230.5,475.3z"
		/>
	<path class="st4" d="M291.76,477.16c0.62-0.62,1.23-1.24,1.85-1.86c0.06,0.62,0.08,1.24,0.06,1.86
		C293.03,477.16,292.4,477.16,291.76,477.16z"/>
	<path class="st5" d="M337.96,250.93c-0.2,26.94-8.9,49.88-31.12,66.55c-11.87,8.91-26.67,11.8-39.33,19.18
		c-2.83,1.65-8.32,1.66-11.11-0.02c-12.53-7.58-27.4-10.01-39.29-19.09c-22.13-16.91-30.9-39.65-30.98-66.62
		c0.2-0.59,0.19-1.17-0.01-1.75c0.12-8.59,0.3-17.18,0.33-25.78c0.1-25.41,10.8-36.63,36.44-37.53c12.11-0.42,24.19-0.94,35.93-4.12
		c16.28-4.41,30.75-12.28,42.43-24.55c3.95-4.15,6.47-4.5,10.83-0.58c16.52,14.84,25.78,32.79,25.58,55.32
		c-0.11,12.41,0.19,24.83,0.31,37.24C337.77,249.76,337.76,250.34,337.96,250.93z"/>
	<path class="st6" d="M175.28,215.86c-16.2-39.28-14.14-85.91,18.29-115c12.35-11.08,27.03-16.88,42.74-19.93
		c20.11-3.9,39.78-3.1,57.38,9.69c5.61,4.08,9.43,9.39,12.61,15.22c1.89,3.46,4.05,5.02,8.09,5.39
		c26.41,2.39,41.43,16.97,44.23,43.89c2,19.22-2.31,37.77-8.56,57.98c-3.26-14.58-3.88-27.61-10.4-39.41
		c-7.61-13.79-17.88-24.52-30.96-32.93c-3.81-2.45-6.08-2.51-9.28,1.64c-17.62,22.92-41.73,32.14-70.04,32
		c-4.75-0.02-9.47-0.09-14.27,0.85C192.65,179.64,176.89,190.42,175.28,215.86z"/>
	<path class="st7" d="M357.08,226.36c3.57,10.18-1.68,23.51-9.72,24.68C351.97,243.36,354.38,234.8,357.08,226.36z"/>
	<path class="st8" d="M173.02,249.09c-7.01-5.56-7.73-13.39-7.75-21.48C169.43,234.2,172.26,241.27,173.02,249.09z"/>
	<path class="st8" d="M175.47,251.05c-0.83-0.67-1.66-1.33-2.5-2C173.8,249.72,174.63,250.39,175.47,251.05z"/>
	<path class="st9" d="M186.13,249.18c0.21,0.58,0.21,1.16,0.01,1.75c0,0-0.84,0.08-0.84,0.08s-0.84-0.01-0.84-0.01
		C185.02,250.39,185.57,249.79,186.13,249.18z"/>
	<path class="st9" d="M337.96,250.93c-0.2-0.58-0.19-1.17,0.01-1.75c0.55,0.61,1.11,1.21,1.66,1.82c0,0-0.84,0.01-0.84,0.01
		L337.96,250.93z"/>
	<path class="st10" d="M272.62,381.04c-7.04,3.17-14.09,3.17-21.13,0c-0.68-0.5-1.36-1.01-2.05-1.51c0,0,0.02,0.16,0.03,0.17
		c-4.61-5.76-10.51-10.19-16.65-13.93c-12.53-7.63-17.03-18.06-12.69-33.2c8.23,3.64,17.08,6.83,25.2,11.32
		c11.41,6.31,22.06,6.34,33.46-0.01c7.97-4.44,16.65-7.63,25.47-11.58c2.28,13.11,2.31,24.03-10.75,31.67
		c-6.92,4.05-13.66,9.18-18.87,15.72c0,0,0.03-0.16,0.03-0.16C273.99,380.03,273.3,380.53,272.62,381.04z"/>
	<path class="st11" d="M234.16,380c3.19,3.68,6.39,7.36,5.56,12.79c-7.65,1.84-13.12,7.49-19.6,11.36
		c-4.03,2.41-6.01,2.54-7.36-2.55c-3.16-11.94-6.45-23.85-10.18-35.61c-1.8-5.7,1.66-5.68,5.25-6.13
		C216.6,366.58,225.38,373.29,234.16,380z"/>
	<path class="st11" d="M284.39,392.79c-0.85-5.51,2.45-9.19,5.71-12.89c8.73-6.68,17.45-13.36,26.18-20.04
		c4.73,0.18,6.78,1.51,4.97,7.04c-3.65,11.12-6.64,22.47-9.56,33.82c-1.51,5.84-3.61,6.04-8.51,2.92
		C297.1,399.78,291.79,394.41,284.39,392.79z"/>
	<path class="st12" d="M243.86,400.74c6.41,6.39,8.02,13.2,4.38,22.09c-5.98,14.63-9.15,30.31-15.92,44.69
		c-40.24-0.02-80.47-0.35-120.7,0.16c-9.35,0.12-10.63-3.4-9.56-11.24c5.34-39.16,41.98-80.75,80.75-91.63
		c5.78-1.62,8.45-0.69,10.11,5.68c4.57,17.53,9.96,34.85,15.42,53.6C220.64,415.99,232.25,408.36,243.86,400.74z"/>
	<path class="st12" d="M291.79,467.53c-7.47-16.5-12.07-34-17.73-51.12c-2.09-6.34,2.18-11.2,6.19-15.67
		c11.38,7.51,22.77,15.03,35.48,23.42c4.94-17.03,9.55-33.04,14.23-49.02c3.82-13.04,4.31-13.45,16.72-8.41
		c40.49,16.47,65.48,46.17,74.94,88.83c2.37,10.68,1.16,11.89-10.12,11.9C371.6,467.49,331.7,467.5,291.79,467.53z"/>
	<path class="st13" d="M249.44,379.53c0.68,0.5,1.37,1.01,2.05,1.51C250.8,380.53,250.12,380.03,249.44,379.53z"/>
	<path class="st13" d="M272.62,381.04c0.68-0.5,1.37-1.01,2.05-1.51C273.99,380.03,273.3,380.53,272.62,381.04z"/>
</g>
</svg>
