<svg xmlns="http://www.w3.org/2000/svg" xml:space="preserve" width="672.028" height="565.333" style="shape-rendering:geometricPrecision;text-rendering:geometricPrecision;image-rendering:optimizeQuality;fill-rule:evenodd;clip-rule:evenodd" viewBox="0 0 908.39 764.17">
    <defs>
        <style>
            .fil0,.fil8{fill:#1d1d1b;fill-rule:nonzero}.fil8{fill:#cfaa6b}
        </style>
    </defs>
    <g id="Capa_x0020_1">
        <g id="ADMON.svg">
            <path class="fil0" d="M230.1 647.96c-8.8 0-17.62.11-26.42-.04-21.77-.34-37.31-15.9-37.74-37.78-.15-7.38-.06-14.77.02-22.17.02-3.07-.56-5.39-3.93-6.67-3.05-1.16-4.81.22-6.68 2.08-5.43 5.43-10.77 10.92-16.31 16.23-15.18 14.58-36.96 14.79-52.03.19-13.22-12.89-26.43-25.9-39.22-39.11-13.99-14.49-14.02-35.97-.3-50.78 4.81-5.2 10.07-10.02 14.98-15.15 2.38-2.49 6.12-4.38 3.95-9.19-2.15-4.79-6.16-3.18-9.57-3.3-6.23-.22-12.51.02-18.74-.09C15.79 481.81.2 466.12.08 443.85c-.09-17.34-.11-34.66.02-51.99.17-22.22 15.84-37.84 38.19-38.14 7.38-.09 14.77-.04 22.17 0 2.75.02 4.83-.6 6.05-3.56 1.2-2.92.21-4.83-1.76-6.78-5.24-5.2-10.5-10.39-15.65-15.69-15.86-16.31-15.88-37.69 0-53.85 12.15-12.36 24.4-24.62 36.7-36.81 15.95-15.82 37.86-15.88 53.92-.22 4.06 3.97 7.79 8.31 12.09 12 2.92 2.49 4.49 7.79 10.22 5.58 5.77-2.23 3.44-7.08 3.73-10.97.58-8.2-.64-16.46.82-24.64 3.18-17.79 17.36-30.44 35.48-30.78 18.46-.34 36.94-.34 55.4 0 20.89.37 36.21 15.93 36.79 36.92.21 7.66.06 15.33.02 23.01-.02 3.05.66 5.35 3.99 6.65 3.11 1.22 4.81-.3 6.65-2.13 5.22-5.22 10.32-10.58 15.65-15.65 16.57-15.76 37.73-15.56 53.85.41 12.1 12 24.21 24.02 36.19 36.13 16.49 16.66 16.33 38.38-.3 55.12-4.4 4.44-8.84 8.84-13.26 13.26-2.36 2.38-5.24 4.33-3.39 8.63 1.89 4.4 5.49 3.28 8.71 3.33 6.53.13 13.07-.06 19.6.06 22.39.39 37.93 15.99 38.06 38.25.11 17.34.15 34.65.02 51.99-.17 22.26-15.8 37.88-38.14 38.21-7.1.11-14.21.02-21.31.04-2.85 0-5.58-.15-6.96 3.41-1.29 3.33.11 5.34 2.25 7.45 5.26 5.17 10.56 10.33 15.67 15.65 15.24 15.86 15.07 37.54-.45 53.28a3657.407 3657.407 0 0 1-37.39 37.35c-15.31 15.05-37.16 15.13-52.67.28-4.72-4.51-9.14-9.34-13.91-13.8-2.47-2.32-4.14-6.33-9.04-4.44-5.41 2.08-3.56 6.5-3.69 10.13-.24 6.23.06 12.51-.09 18.74-.52 21.89-16.08 37.37-37.86 37.71-8.8.15-17.62.04-26.42.04l.07-.1zm53.13-278.25h-.04c0-7.38-.49-14.81.13-22.15.62-7.19-2.36-8.82-8.84-8.39-7.06.49-14.21.28-21.29-.02-16.48-.69-27.43-9.08-33.68-24.23-6.23-15.13-4.55-28.89 6.5-41.08 5.15-5.67 10.67-11.03 16.27-16.27 3.5-3.3 4.49-5.8.43-9.68 36.66 3.08 73.14 8 109.32 14.4-3.74-3.89-6.27-3.52-9.68.19-5 5.43-10.26 10.62-15.63 15.69-12.24 11.59-26.21 13.61-41.68 7.28-15.47-6.33-23.95-17.6-24.45-34.45-.22-7.66-.21-15.33.02-23.01.13-4.77-1.67-6.48-6.5-6.4-15.9.22-31.81.26-47.72 0-5.3-.09-7.02 1.85-6.81 6.96.3 7.38.21 14.77.02 22.15-.45 16.81-8.74 28.18-24.21 34.62-15.41 6.4-29.41 4.55-41.71-6.96-5.8-5.43-11.4-11.1-16.89-16.85-2.79-2.92-5.04-2.88-7.83-.06-11.57 11.72-23.2 23.4-34.94 34.94-3.13 3.07-3.2 5.41.02 8.46 5.97 5.65 11.95 11.36 17.43 17.51 10.97 12.32 12.3 26.23 5.93 41.19-6.25 14.72-17.15 22.95-33.21 23.7-7.94.36-15.91.3-23.85.04-4.77-.15-6.57 1.59-6.53 6.38.19 16.2.22 32.37.04 48.57-.06 5.04 2.17 6.31 6.72 6.16 7.66-.24 15.33-.26 23.01-.02 16.89.54 27.97 9.27 34.22 24.73 6.12 15.17 4.1 28.91-7.06 41-5 5.41-10.2 10.71-15.67 15.65-4.01 3.61-4.57 6.23-.32 10.28 11.29 10.78 22.37 21.81 33.14 33.12 4.08 4.29 6.65 3.63 10.28-.28 5.6-6.03 11.33-12 17.6-17.32 12.32-10.47 26.02-11.18 40.57-4.79 14 6.14 22.15 16.48 23.07 31.83.51 8.5.32 17.04.19 25.56-.08 4.38 1.63 5.99 6.05 5.93 16.2-.17 32.39-.21 48.57.02 4.87.06 6.53-1.72 6.4-6.48-.24-7.66-.17-15.33.04-23.01.45-16.91 9.02-28.1 24.49-34.41 15.45-6.31 29.43-4.27 41.66 7.34 5.35 5.07 10.65 10.24 15.63 15.67 3.46 3.76 5.93 3.97 9.66.09 11.03-11.46 22.34-22.65 33.76-33.72 3.45-3.33 3.67-5.75.13-9.08-5.79-5.45-11.5-11.01-16.85-16.87-11.14-12.19-12.75-26.02-6.5-41.1 6.25-15.07 17.24-23.55 33.74-24.17 7.66-.28 15.35-.34 22.99 0 5.15.22 7.23-1.5 7.04-6.78-.3-7.86-.09-15.82-.09-23.78l-143.08-48.12z"/>
            <path d="M426.33 417.86c0 7.96-.21 15.91.08 23.85.19 5.26-1.89 7-7.04 6.78-7.66-.34-15.33-.3-22.99 0-16.49.6-27.48 9.08-33.74 24.17-6.25 15.05-4.62 28.91 6.5 41.1 5.35 5.86 11.06 11.42 16.85 16.87 3.54 3.33 3.31 5.73-.13 9.08-11.42 11.06-22.73 22.26-33.76 33.72-3.73 3.86-6.2 3.67-9.66-.09-4.98-5.43-10.28-10.6-15.63-15.67-12.23-11.61-26.21-13.65-41.66-7.34-15.47 6.31-24.04 17.51-24.49 34.41-.21 7.66-.26 15.33-.04 23.01.15 4.74-1.54 6.53-6.4 6.48-16.19-.22-32.37-.19-48.57-.02-4.42.06-6.12-1.55-6.05-5.93.13-8.52.34-17.06-.19-25.56-.92-15.37-9.08-25.69-23.07-31.83-14.55-6.38-28.25-5.67-40.57 4.79-6.25 5.32-11.98 11.31-17.6 17.32-3.63 3.91-6.22 4.57-10.28.28-10.77-11.31-21.85-22.34-33.14-33.12-4.25-4.06-3.69-6.67.32-10.28 5.47-4.94 10.67-10.22 15.67-15.65 11.16-12.08 13.18-25.84 7.06-41-6.23-15.47-17.32-24.19-34.22-24.73-7.66-.24-15.33-.22-23.01.02-4.55.15-6.78-1.12-6.72-6.16.19-16.2.15-32.37-.04-48.57-.06-4.81 1.74-6.55 6.53-6.38 7.94.26 15.91.34 23.85-.04 16.06-.73 26.96-8.99 33.21-23.7 6.35-14.96 5.04-28.89-5.93-41.19-5.47-6.14-11.44-11.85-17.43-17.51-3.22-3.05-3.16-5.39-.02-8.46 11.74-11.55 23.37-23.23 34.94-34.94 2.81-2.83 5.04-2.86 7.83.06 5.49 5.75 11.08 11.42 16.89 16.85 12.3 11.51 26.31 13.37 41.71 6.96 15.47-6.42 23.76-17.8 24.21-34.62.21-7.38.28-14.77-.02-22.15-.21-5.11 1.54-7.04 6.82-6.96 15.9.26 31.81.22 47.72 0 4.83-.08 6.63 1.63 6.5 6.4-.22 7.66-.24 15.33-.02 23.01.51 16.85 8.97 28.12 24.45 34.45 15.47 6.33 29.43 4.31 41.68-7.28 5.35-5.07 10.63-10.26 15.63-15.69 3.41-3.71 5.93-4.08 9.68-.19 11.03 11.46 22.28 22.71 33.76 33.72 4.04 3.89 3.07 6.38-.43 9.68-5.6 5.24-11.12 10.6-16.27 16.27-11.05 12.19-12.73 25.97-6.5 41.08 6.25 15.17 17.21 23.55 33.68 24.23 7.1.3 14.23.51 21.29.02 6.48-.43 9.45 1.2 8.84 8.39-.64 7.34-.13 14.75-.13 22.15.04-.08.06-.08.06-.08zm-287.73-.24c-.22 50.27 40.83 91.59 91.27 91.87 49.78.28 91.42-40.72 91.85-90.45.43-50.87-40.7-92.64-91.29-92.7-50.51-.06-91.61 40.78-91.83 91.27z" style="fill:#e30613;fill-rule:nonzero"/>
            <path class="fil0" d="M138.6 417.62c.22-50.49 41.32-91.33 91.83-91.27 50.59.06 91.72 41.83 91.29 92.7-.43 49.73-42.07 90.73-91.85 90.45-50.46-.3-91.52-41.62-91.27-91.87zm149.37.08c-.11-31.75-26.44-57.8-58.25-57.61-31.4.19-57.4 26.27-57.4 57.57-.02 31.87 26.08 58.06 57.83 58.04 31.79-.02 57.93-26.23 57.81-58zm382.05-146c-4.08 0-8.18.06-12.26-.02-10.11-.15-17.32-7.38-17.52-17.54-.08-3.43-.02-6.85 0-10.3.02-1.42-.26-2.51-1.82-3.09-1.42-.54-2.25.09-3.11.97-2.53 2.51-5 5.07-7.56 7.55-7.06 6.78-17.17 6.87-24.17.09a779.914 779.914 0 0 1-18.18-18.2c-6.5-6.72-6.52-16.7-.15-23.57 2.25-2.42 4.68-4.64 6.96-7.04 1.1-1.16 2.85-2.04 1.83-4.27-.99-2.23-2.86-1.48-4.44-1.54-2.9-.11-5.8 0-8.71-.04-10.37-.17-17.6-7.45-17.66-17.81-.04-8.05-.06-16.1.02-24.15.08-10.32 7.36-17.56 17.73-17.71 3.43-.06 6.85-.02 10.3 0 1.27 0 2.25-.28 2.81-1.65.56-1.37.09-2.25-.8-3.15-2.43-2.41-4.87-4.83-7.26-7.28-7.36-7.58-7.38-17.51 0-24.99a1830.6 1830.6 0 0 1 17.04-17.09c7.41-7.34 17.58-7.38 25.05-.09 1.89 1.83 3.61 3.86 5.62 5.58 1.35 1.16 2.1 3.61 4.76 2.58 2.68-1.03 1.59-3.3 1.72-5.09.26-3.8-.3-7.64.39-11.44 1.48-8.26 8.07-14.14 16.48-14.3 8.57-.15 17.15-.15 25.72 0 9.7.17 16.81 7.4 17.09 17.15.09 3.56.04 7.13.02 10.69 0 1.42.3 2.49 1.85 3.09 1.44.56 2.23-.13 3.09-.99 2.41-2.43 4.79-4.91 7.26-7.26 7.69-7.32 17.52-7.23 25.01.19 5.62 5.58 11.23 11.16 16.81 16.78 7.66 7.73 7.58 17.82-.15 25.59-2.04 2.06-4.1 4.1-6.16 6.16-1.1 1.1-2.43 2-1.57 4.01.88 2.04 2.55 1.52 4.04 1.55 3.03.06 6.07-.02 9.1.02 10.39.19 17.62 7.41 17.67 17.77.06 8.05.08 16.1 0 24.15-.08 10.33-7.34 17.6-17.71 17.75-3.3.06-6.59 0-9.9.02-1.33 0-2.58-.08-3.24 1.59-.6 1.55.06 2.49 1.05 3.46 2.45 2.4 4.91 4.79 7.28 7.26 7.08 7.36 7 17.43-.21 24.75-5.75 5.82-11.53 11.61-17.36 17.34-7.11 6.98-17.26 7.02-24.47.13-2.19-2.1-4.25-4.34-6.46-6.4-1.16-1.07-1.91-2.94-4.21-2.06-2.51.97-1.65 3.01-1.72 4.7-.11 2.9.02 5.8-.04 8.71-.24 10.17-7.47 17.36-17.58 17.51-4.12 0-8.2-.06-12.3-.06zm91.14-106.85c-.02-3.43-.24-6.87.06-10.28.28-3.33-1.09-4.1-4.1-3.89-3.28.22-6.59.13-9.89-.02-7.66-.32-12.73-4.21-15.63-11.25-2.9-7.02-2.12-13.41 3.01-19.08 2.4-2.64 4.96-5.11 7.55-7.55 1.63-1.54 2.08-2.7.21-4.49-5.28-5.1-10.62-10.38-15.7-15.66-1.74-1.82-2.92-1.63-4.49.09-2.32 2.53-4.77 4.92-7.26 7.28-5.69 5.37-12.17 6.33-19.36 3.39-7.19-2.94-11.12-8.18-11.35-15.99-.11-3.56-.09-7.13 0-10.69.06-2.21-.77-3.01-3.01-2.98-7.38.11-14.77.13-22.17 0-2.45-.04-3.26.86-3.16 3.24.13 3.43.09 6.85 0 10.28-.21 7.81-4.06 13.09-11.23 16.08-7.15 2.98-13.65 2.12-19.38-3.24-2.7-2.53-5.3-5.15-7.84-7.83-1.29-1.37-2.34-1.35-3.63-.02-5.37 5.45-10.77 10.86-16.23 16.23-1.46 1.42-1.48 2.51.02 3.93 2.77 2.62 5.54 5.28 8.09 8.13 5.09 5.71 5.71 12.19 2.75 19.13-2.9 6.83-7.96 10.67-15.43 11.01-3.69.17-7.4.13-11.08.02-2.23-.08-3.05.73-3.03 2.96.09 7.53.09 15.03.02 22.56-.02 2.34 1.01 2.92 3.13 2.86 3.56-.11 7.13-.11 10.69 0 7.84.26 12.99 4.31 15.9 11.48 2.85 7.04 1.91 13.42-3.28 19.04-2.32 2.51-4.74 4.98-7.28 7.26-1.85 1.68-2.12 2.9-.15 4.77 5.24 5.02 10.39 10.13 15.39 15.39 1.89 1.98 3.09 1.68 4.77-.13 2.6-2.79 5.26-5.58 8.16-8.05 5.71-4.87 12.09-5.19 18.83-2.23 6.5 2.85 10.3 7.66 10.71 14.79.24 3.95.15 7.92.08 11.87-.04 2.04.75 2.77 2.81 2.75 7.53-.07 15.03-.09 22.56.02 2.27.04 3.03-.81 2.98-3.01-.11-3.56-.08-7.11.02-10.69.21-7.84 4.19-13.05 11.36-15.99 7.17-2.92 13.67-1.98 19.34 3.41 2.49 2.36 4.94 4.76 7.26 7.28 1.61 1.74 2.75 1.83 4.47.04 5.13-5.32 10.37-10.52 15.67-15.65 1.59-1.55 1.7-2.68.06-4.21-2.7-2.53-5.34-5.11-7.83-7.83-5.17-5.65-5.92-12.1-3.01-19.08 2.9-7 8.01-10.93 15.67-11.21 3.56-.13 7.13-.15 10.69 0 2.4.11 3.35-.69 3.28-3.15-.11-3.73-.02-7.43-.02-11.12l.02.01z"/>
            <path d="M761.16 164.85c0 3.69-.09 7.4.04 11.08.09 2.45-.88 3.26-3.28 3.15-3.56-.15-7.13-.13-10.69 0-7.66.28-12.77 4.21-15.67 11.21-2.9 6.98-2.15 13.42 3.01 19.08 2.49 2.71 5.13 5.32 7.83 7.83 1.65 1.54 1.54 2.66-.06 4.21-5.3 5.13-10.56 10.34-15.67 15.65-1.72 1.8-2.88 1.7-4.47-.04-2.32-2.53-4.77-4.92-7.26-7.28-5.67-5.39-12.17-6.33-19.34-3.41s-11.16 8.13-11.36 15.99c-.09 3.56-.13 7.13-.02 10.69.08 2.21-.71 3.03-2.98 3.01-7.53-.09-15.03-.09-22.56-.02-2.06.02-2.85-.71-2.81-2.75.06-3.95.15-7.92-.08-11.87-.43-7.13-4.21-11.93-10.71-14.79-6.76-2.96-13.12-2.64-18.83 2.23-2.9 2.47-5.56 5.24-8.16 8.05-1.68 1.82-2.88 2.12-4.77.13-5-5.24-10.15-10.37-15.39-15.39-1.97-1.89-1.7-3.09.15-4.77 2.55-2.28 4.96-4.76 7.28-7.26 5.19-5.62 6.12-12 3.28-19.04-2.9-7.17-8.05-11.23-15.9-11.48-3.56-.11-7.13-.11-10.69 0-2.12.08-3.15-.52-3.13-2.86.09-7.53.08-15.03-.02-22.56-.02-2.23.8-3.03 3.03-2.96 3.69.13 7.4.15 11.08-.02 7.47-.34 12.53-4.17 15.43-11.01 2.96-6.95 2.34-13.41-2.75-19.13-2.55-2.85-5.32-5.5-8.09-8.13-1.5-1.42-1.46-2.51-.02-3.93 5.45-5.35 10.84-10.78 16.23-16.23 1.29-1.31 2.34-1.33 3.63.02 2.55 2.68 5.15 5.3 7.84 7.83 5.71 5.35 12.21 6.22 19.38 3.24 7.17-2.98 11.03-8.28 11.23-16.08.09-3.43.13-6.87 0-10.28-.09-2.38.71-3.28 3.16-3.24 7.38.11 14.77.11 22.17 0 2.25-.04 3.07.77 3.01 2.98-.11 3.56-.11 7.13 0 10.69.22 7.83 4.17 13.05 11.35 15.99 7.19 2.94 13.67 2 19.36-3.39 2.49-2.36 4.94-4.77 7.26-7.28 1.59-1.72 2.75-1.89 4.49-.09a578.06 578.06 0 0 0 15.67 15.65c1.89 1.8 1.42 2.98-.21 4.49-2.6 2.43-5.17 4.92-7.55 7.55-5.13 5.67-5.92 12.06-3.01 19.08 2.9 7.04 7.99 10.93 15.63 11.25 3.3.13 6.61.22 9.89.02 3.01-.21 4.4.56 4.1 3.89-.32 3.43-.09 6.89-.08 10.32zm-133.62-.11c-.11 23.35 18.97 42.54 42.39 42.67 23.12.13 42.46-18.91 42.65-42.01.21-23.63-18.91-43.02-42.39-43.04-23.46-.04-42.54 18.93-42.65 42.39z" style="fill:#f39200;fill-rule:nonzero"/>
            <path class="fil0" d="M627.54 164.73c.11-23.44 19.19-42.41 42.65-42.39 23.5.02 42.59 19.43 42.39 43.04-.21 23.1-19.55 42.14-42.65 42.01-23.44-.15-42.5-19.34-42.39-42.67zm69.37.04c-.06-14.75-12.28-26.85-27.05-26.75-14.58.09-26.66 12.21-26.66 26.74 0 14.81 12.11 26.96 26.85 26.96 14.79-.02 26.92-12.21 26.87-26.94zm43.68 583.45c-6.42 0-12.84.08-19.27-.02-15.88-.24-27.2-11.59-27.52-27.54-.11-5.39-.04-10.77.02-16.16.02-2.23-.41-3.93-2.86-4.85-2.23-.84-3.52.17-4.87 1.52-3.95 3.95-7.84 7.96-11.89 11.83-11.08 10.63-26.94 10.78-37.93.13a1165.24 1165.24 0 0 1-28.53-28.59c-10.2-10.56-10.22-26.21-.22-37.01 3.52-3.8 7.36-7.3 10.92-11.05 1.74-1.82 4.46-3.2 2.88-6.7-1.57-3.5-4.49-2.32-6.98-2.4-4.55-.17-9.12.02-13.67-.06-16.27-.28-27.63-11.7-27.73-27.95-.06-12.64-.08-25.28.02-37.91.11-16.21 11.55-27.58 27.84-27.82 5.39-.08 10.77-.02 16.16 0 2 0 3.52-.43 4.42-2.58.88-2.13.15-3.52-1.27-4.94-3.82-3.8-7.66-7.58-11.4-11.44-11.55-11.89-11.59-27.48 0-39.26 8.86-9.01 17.79-17.96 26.75-26.85 11.63-11.53 27.6-11.57 39.32-.15 2.96 2.88 5.67 6.07 8.82 8.74 2.13 1.82 3.28 5.67 7.45 4.06 4.21-1.63 2.51-5.17 2.71-8.01.41-5.97-.47-12 .6-17.97 2.32-12.97 12.66-22.21 25.87-22.45 13.46-.24 26.94-.24 40.4 0 15.24.28 26.4 11.61 26.83 26.92.15 5.6.06 11.18.02 16.78-.02 2.23.47 3.89 2.9 4.85 2.27.88 3.5-.22 4.85-1.55 3.8-3.8 7.53-7.71 11.42-11.42 12.08-11.5 27.5-11.35 39.26.3 8.82 8.76 17.64 17.51 26.4 26.34 12.02 12.15 11.91 27.99-.22 40.2-3.22 3.24-6.44 6.44-9.66 9.66-1.72 1.72-3.82 3.16-2.47 6.29 1.37 3.2 4.01 2.4 6.35 2.43 4.76.09 9.53-.04 14.29.04 16.33.3 27.65 11.65 27.75 27.9.07 12.64.11 25.28.02 37.91-.11 16.23-11.51 27.62-27.8 27.86-5.19.08-10.35 0-15.54.02-2.08 0-4.06-.11-5.07 2.49-.95 2.43.08 3.89 1.65 5.43 3.84 3.78 7.69 7.55 11.42 11.42 11.1 11.55 10.99 27.37-.34 38.85-9.02 9.14-18.1 18.24-27.26 27.22-11.18 10.97-27.09 11.03-38.4.21-3.44-3.3-6.67-6.82-10.15-10.07-1.82-1.68-3.01-4.62-6.61-3.24-3.95 1.52-2.58 4.74-2.7 7.4-.19 4.55.04 9.12-.08 13.67-.39 15.95-11.72 27.26-27.6 27.48-6.44.13-12.86.06-19.28.06zm143.08-167.77h-.02c0-5.39-.36-10.8.09-16.14.45-5.24-1.72-6.44-6.44-6.12-5.15.36-10.35.21-15.52-.02-12-.51-20-6.63-24.56-17.67-4.55-11.03-3.31-21.06 4.74-29.96 3.74-4.14 7.79-8.03 11.85-11.85 2.57-2.4 3.28-4.23.32-7.06a863.866 863.866 0 0 1-24.6-24.58c-2.73-2.85-4.57-2.57-7.06.13-3.65 3.95-7.49 7.75-11.4 11.44-8.93 8.44-19.12 9.92-30.39 5.3-11.29-4.62-17.47-12.84-17.82-25.13-.17-5.58-.15-11.18 0-16.78.09-3.48-1.22-4.72-4.74-4.66-11.59.17-23.2.19-34.79 0-3.86-.06-5.13 1.35-4.98 5.07.21 5.37.15 10.77.02 16.16-.34 12.26-6.37 20.56-17.66 25.24-11.23 4.68-21.44 3.31-30.42-5.07-4.23-3.97-8.31-8.09-12.32-12.28-2.04-2.13-3.67-2.1-5.71-.04-8.44 8.54-16.91 17.06-25.48 25.48-2.28 2.25-2.34 3.93.02 6.18 4.36 4.12 8.72 8.29 12.71 12.77 7.99 8.99 8.97 19.13 4.33 30.03-4.55 10.73-12.51 16.74-24.23 17.28-5.79.26-11.61.21-17.39.02-3.48-.11-4.79 1.16-4.76 4.66.13 11.8.15 23.61.02 35.4-.04 3.67 1.59 4.59 4.91 4.49 5.58-.17 11.18-.19 16.78 0 12.32.39 20.41 6.76 24.96 18.03 4.47 11.07 3 21.08-5.15 29.9-3.65 3.95-7.43 7.81-11.42 11.4-2.92 2.64-3.33 4.55-.24 7.51a724.21 724.21 0 0 1 24.17 24.15c2.98 3.13 4.85 2.64 7.51-.21 4.08-4.4 8.26-8.76 12.83-12.64 8.99-7.64 18.98-8.14 29.58-3.5 10.2 4.47 16.16 12 16.83 23.22.37 6.2.22 12.41.13 18.63-.06 3.2 1.18 4.36 4.4 4.33 11.8-.13 23.61-.15 35.4.02 3.54.06 4.77-1.25 4.66-4.72-.17-5.58-.13-11.18.02-16.78.34-12.32 6.59-20.5 17.84-25.09 11.27-4.59 21.46-3.11 30.37 5.35 3.91 3.71 7.77 7.47 11.4 11.44 2.53 2.75 4.32 2.88 7.04.08 8.03-8.35 16.29-16.51 24.6-24.58 2.51-2.43 2.68-4.19.09-6.61-4.23-3.97-8.39-8.03-12.3-12.3-8.13-8.89-9.3-18.98-4.74-29.96 4.57-10.99 12.58-17.17 24.6-17.62 5.58-.21 11.2-.24 16.78 0 3.76.17 5.26-1.1 5.13-4.94-.13-5.82.02-11.63.02-17.41z"/>
            <path d="M883.66 580.45c0 5.8-.15 11.61.06 17.39.13 3.84-1.37 5.11-5.13 4.94-5.58-.24-11.18-.21-16.78 0-12.04.45-20.05 6.63-24.6 17.62-4.55 10.97-3.37 21.08 4.74 29.96 3.91 4.27 8.07 8.33 12.3 12.3 2.58 2.42 2.41 4.17-.09 6.61-8.33 8.07-16.57 16.23-24.6 24.58-2.71 2.83-4.51 2.68-7.04-.08-3.63-3.97-7.51-7.73-11.4-11.44-8.91-8.46-19.1-9.94-30.37-5.35-11.27 4.61-17.52 12.77-17.84 25.09-.15 5.58-.19 11.18-.02 16.78.11 3.46-1.12 4.77-4.66 4.72-11.8-.15-23.61-.15-35.4-.02-3.22.04-4.46-1.12-4.4-4.32.09-6.22.24-12.43-.13-18.63-.67-11.2-6.61-18.74-16.83-23.22-10.6-4.64-20.61-4.14-29.58 3.5-4.57 3.88-8.74 8.24-12.83 12.64-2.66 2.85-4.53 3.33-7.51.21-7.84-8.24-15.93-16.29-24.17-24.15-3.09-2.96-2.68-4.87.24-7.51 3.99-3.59 7.77-7.45 11.42-11.4 8.14-8.82 9.6-18.83 5.15-29.9-4.55-11.27-12.64-17.64-24.96-18.03-5.58-.19-11.18-.17-16.78 0-3.31.11-4.94-.82-4.91-4.49.13-11.8.11-23.61-.02-35.4-.04-3.5 1.27-4.77 4.76-4.66 5.79.19 11.61.24 17.39-.02 11.72-.54 19.66-6.55 24.23-17.28 4.62-10.92 3.67-21.06-4.33-30.03-3.99-4.47-8.35-8.63-12.71-12.77-2.36-2.23-2.3-3.93-.02-6.18 8.56-8.43 17.04-16.94 25.48-25.48 2.04-2.06 3.67-2.1 5.71.04 4.01 4.19 8.09 8.33 12.32 12.28 8.97 8.41 19.17 9.75 30.42 5.07 11.27-4.68 17.32-12.97 17.66-25.24.15-5.37.21-10.78-.02-16.16-.15-3.73 1.12-5.15 4.98-5.07 11.59.19 23.2.17 34.79 0 3.52-.06 4.83 1.2 4.74 4.66-.17 5.58-.17 11.18 0 16.78.37 12.28 6.53 20.5 17.82 25.13 11.27 4.62 21.46 3.15 30.39-5.3 3.91-3.71 7.75-7.49 11.4-11.44 2.49-2.7 4.33-2.98 7.06-.13 8.05 8.35 16.25 16.55 24.6 24.58 2.96 2.83 2.25 4.66-.32 7.06-4.08 3.82-8.11 7.71-11.85 11.85-8.05 8.89-9.29 18.93-4.74 29.96 4.55 11.05 12.54 17.17 24.56 17.67 5.17.22 10.37.37 15.52.02 4.74-.32 6.89.88 6.44 6.12-.47 5.34-.09 10.77-.09 16.14l-.06.02zm-209.8-.19c-.17 36.64 29.77 66.78 66.56 66.99 36.3.21 66.67-29.69 66.97-65.96.32-37.09-29.67-67.55-66.56-67.59-36.83-.04-66.8 29.75-66.97 66.56z" style="fill:#1d71b8;fill-rule:nonzero"/>
            <path class="fil0" d="M673.86 580.26c.17-36.81 30.12-66.6 66.97-66.56 36.88.04 66.88 30.5 66.56 67.59-.32 36.27-30.67 66.17-66.97 65.96-36.79-.21-66.71-30.35-66.56-66.99zm108.93.06c-.08-23.16-19.28-42.14-42.46-42.01-22.88.13-41.84 19.15-41.86 41.98-.02 23.23 19.02 42.33 42.16 42.31 23.18 0 42.24-19.12 42.16-42.28zm-492.14-309.3c-7.69-38.47-16.27-76.46-10.97-116.6C288.85 85 338.13 24.71 405.5 6.94c15.35-4.04 31.1-8.09 48.32-5.34 17.64 2.83 35.67-5.28 54.33.58 27.77 8.74 51.21 22.52 66.95 47.39 4.94 7.81 9.57 10.28 19.94 10.99 30.48 2.12 53.55 19.34 68.49 45.66 20.46 36.08 19.96 74.98 13.61 114.69-2.7 16.91-10.69 32.9-8.87 50.55-7.81 5.35-7.02 14.88-10.86 22.19-5.04 15.8-9.57 31.83-18.2 46.21-4.81-.04-9.62-.06-14.44-.09-1.03-1.12-2.08-2.27-3.11-3.41-.22-23.23-.77-46.49-.58-69.72.36-42.18-16.96-75.79-47.89-103.57-8.16-7.32-12.88-6.68-20.28 1.09-21.87 22.97-48.96 37.71-79.44 45.96-21.98 5.95-44.6 6.91-67.27 7.71-48 1.68-68.04 22.69-68.22 70.27-.06 16.08-.41 32.18-.62 48.27-1.03 1.14-2.08 2.27-3.11 3.41l-16.85.11c-1.55-1.25-3.11-2.49-4.68-3.74l.09.07c-1.42-14.64-6.72-27.88-14.51-40.23-.19-9.04-4.08-16.96-7.66-24.96zm26.36 2.98c3.03-47.65 32.52-67.81 74.57-76.01 8.97-1.76 17.8-1.63 26.72-1.59 53 .26 98.14-17 131.13-59.91 5.97-7.77 10.22-7.66 17.37-3.07 24.49 15.75 43.72 35.83 57.96 61.65 12.19 22.09 13.37 46.49 19.47 73.79 11.7-37.84 19.77-72.57 16.03-108.55-5.26-50.42-33.38-77.7-82.81-82.17-7.56-.69-11.61-3.61-15.15-10.09-5.95-10.92-13.11-20.86-23.61-28.5-32.93-23.95-69.78-25.46-107.43-18.14-29.41 5.71-56.9 16.57-80.02 37.31-60.74 54.44-64.59 141.75-34.24 215.29z"/>
            <path class="fil0" d="M290.65 271.02c3.58 8.01 7.47 15.91 7.62 24.98.04 15.15 1.39 29.81 14.51 40.22l-.09-.07c1.55 1.25 3.11 2.49 4.68 3.74l16.85-.11 1.57.02 1.57-.15c.15 50.49 16.57 93.07 58 124.73 22.24 17 50.08 21.55 73.56 35.74 5.22 3.15 15.48 3.13 20.8.04 23.7-13.82 51.41-19.23 73.64-35.91 41.6-31.21 57.89-74.16 58.26-124.6l1.57.15 1.57-.02c4.81.04 9.62.06 14.44.09 15.07-2.21 24.88-27.15 18.2-46.21 3.84-7.28 3.05-16.83 10.86-22.19 13.74 7.98 14.4 21.31 12.51 34.43-3.52 24.38-13.54 45.83-33.98 60.81-5.41 3.95-7.34 8.46-8.61 14.6-7.19 34.94-23.74 64.74-50.27 88.73-4.76 4.31-7.6 8.72-7.3 15.35.56 12.51.66 25.03.94 37.56-.17 6.89-.34 13.78-.52 20.67-16.33 12.51-32.67 25.01-49.02 37.52-9.53-9.7-19.36 3.48-28.96-.39 9.75-12.24 22.37-21.85 35.33-29.43 24.45-14.3 24.38-34.75 20.13-59.29-16.53 7.4-32.76 13.37-47.69 21.68-21.34 11.87-41.28 11.83-62.65.02-15.2-8.41-31.77-14.38-47.18-21.19-8.13 28.33.3 47.85 23.76 62.16 11.5 7 22.54 15.3 31.17 26.08-9.47 4.04-19.3-9.51-28.66.58-16.44-12.56-32.86-25.13-49.3-37.71-.17-6.89-.36-13.8-.52-20.69.28-11.93.32-23.87.95-35.78.37-7.21-2.08-12.43-7.6-17.07-12-10.09-22.21-22.13-29.41-35.83-17.07-32.48-27.97-67.38-52.27-97.09-20.39-24.98-15.28-50.18 1.55-66.15z"/>
            <path class="fil0" d="M377.43 522.93c.17 6.89.36 13.8.52 20.69-6.72.84-13.2.81-9.83 11.48 6.98 22.04 13.14 44.33 19.06 66.67 2.53 9.53 6.23 9.27 13.78 4.77 12.11-7.25 22.35-17.84 36.68-21.27 7.25 2.53 7.98 8.46 7.77 14.87-21.74 14.29-43.45 28.57-66.52 43.74-10.22-35.09-20.31-67.51-28.87-100.35-3.11-11.93-8.11-13.67-18.93-10.63-72.59 20.37-141.19 98.24-151.18 171.55-2 14.68.39 21.27 17.9 21.04 75.32-.96 150.66-.34 225.98-.3.65 5.28-1.18 9.96-3.41 14.57-.11 1.16-.15 2.32-.11 3.48-83.09.22-166.2.19-249.29.94-13.72.13-14.15-6.83-13.29-16.74 8.43-97.71 59.03-165.39 147.25-205.85 22.92-10.52 47.37-16.21 72.49-18.65zM581 543.6c.17-6.89.36-13.78.52-20.67C708.33 535.4 795.05 638 801.15 747.41c.56 10.13.28 16.85-13.33 16.74-83.05-.71-166.11-.69-249.18-.92.04-1.16 0-2.32-.11-3.46-2.23-4.61-4.06-9.29-3.41-14.57 74.7-.04 149.42-.08 224.13-.13 21.12-.02 23.38-2.28 18.95-22.28-17.71-79.87-64.5-135.48-140.31-166.31-23.23-9.45-24.15-8.67-31.3 15.75-8.76 29.94-17.39 59.91-26.64 91.78-23.8-15.71-45.12-29.79-66.43-43.85-.21-6.42.52-12.34 7.75-14.87 13.85 3.03 23.8 13.09 35.18 20.31 9.17 5.82 13.11 5.47 15.93-5.47 5.47-21.23 11.08-42.48 17.9-63.32 3.43-10.39-.43-12.88-9.29-13.22z"/>
            <path class="fil0" d="M535.14 745.19c-.66 5.28 1.18 9.96 3.41 14.55-1.16 1.16-2.3 2.32-3.46 3.48H423.84c-1.16-1.16-2.3-2.32-3.46-3.48 2.23-4.61 4.06-9.29 3.41-14.57 12.68-26.94 18.61-56.3 29.81-83.67 6.82-16.64 3.8-29.41-8.2-41.36.21-6.42-.52-12.36-7.75-14.87 1.57-10.17-4.44-17.06-10.41-23.95 9.36-10.07 19.19 3.48 28.66-.58l-.06-.32c1.27.94 2.55 1.89 3.84 2.83 13.18 5.93 26.38 5.93 39.56 0l3.84-2.83-.06.3c9.6 3.88 19.43-9.31 28.96.39-6.1 6.93-12.28 13.8-10.69 24.13-7.25 2.53-7.96 8.46-7.75 14.87-7.51 8.37-15.5 17.47-11.59 29.34 10.6 32.07 19.21 64.84 33.2 95.73z"/>
            <path d="M420.39 759.73c1.16 1.16 2.3 2.32 3.46 3.48h-3.56c-.06-1.16-.02-2.32.09-3.48zm114.69 3.48c1.16-1.16 2.3-2.32 3.46-3.48.11 1.16.15 2.32.11 3.48h-3.58z" style="fill:#4072b0;fill-rule:nonzero"/>
            <path d="M621.59 339.66c-.37 50.44-16.66 93.39-58.26 124.6-22.22 16.68-49.93 22.09-73.64 35.91-5.3 3.09-15.58 3.11-20.8-.04-23.46-14.19-51.3-18.74-73.56-35.74-41.43-31.66-57.85-74.23-58-124.73.37-1.11.36-2.19-.02-3.28.22-16.08.56-32.17.62-48.27.19-47.57 20.22-68.58 68.22-70.27 22.67-.79 45.29-1.76 67.27-7.71 30.48-8.26 57.57-22.99 79.44-45.96 7.4-7.77 12.11-8.43 20.28-1.09 30.93 27.78 48.27 61.39 47.89 103.57-.21 23.23.36 46.49.58 69.72-.37 1.09-.39 2.17-.02 3.28z" style="fill:#f4cd84;fill-rule:nonzero"/>
            <path d="M317.01 274c-30.33-73.54-26.47-160.84 34.24-215.31 23.12-20.74 50.61-31.6 80.02-37.31 37.65-7.3 74.48-5.8 107.43 18.14 10.5 7.64 17.65 17.58 23.61 28.5 3.54 6.48 7.58 9.4 15.15 10.09 49.45 4.47 77.57 31.77 82.81 82.17 3.74 35.98-4.32 70.71-16.03 108.55-6.1-27.3-7.26-51.69-19.47-73.79-14.25-25.82-33.48-45.91-57.96-61.65-7.13-4.59-11.38-4.7-17.37 3.07-32.99 42.91-78.13 60.17-131.13 59.91-8.89-.04-17.73-.17-26.72 1.59-42.05 8.22-71.56 28.4-74.57 76.03z" style="fill:#a5704d;fill-rule:nonzero"/>
            <path d="M657.38 293.66c6.68 19.06-3.15 44.02-18.2 46.21 8.63-14.38 13.14-30.41 18.2-46.21z" style="fill:#d0ac6c;fill-rule:nonzero"/>
            <path class="fil8" d="M312.78 336.21c-13.12-10.41-14.47-25.07-14.51-40.22 7.79 12.34 13.09 25.57 14.51 40.22zM317.36 339.88c-1.55-1.25-3.11-2.49-4.68-3.74 1.55 1.25 3.11 2.51 4.68 3.74z"/>
            <path d="M337.32 336.38c.39 1.09.39 2.17.02 3.28l-1.57.15-1.57-.02 3.13-3.41zm284.26 3.28c-.37-1.09-.36-2.19.02-3.28 1.03 1.14 2.08 2.27 3.11 3.41l-1.57.02-1.55-.15z" style="fill:#6f432c;fill-rule:nonzero"/>
            <path d="M499.25 583.26c-13.18 5.93-26.38 5.93-39.56 0-1.27-.94-2.55-1.89-3.84-2.83 0 0 .04.3.06.32-8.63-10.78-19.68-19.08-31.17-26.08-23.46-14.29-31.88-33.81-23.76-62.16 15.41 6.81 31.98 12.79 47.18 21.19 21.36 11.81 41.3 11.87 62.65-.02 14.92-8.31 31.17-14.29 47.69-21.68 4.27 24.55 4.33 44.99-20.13 59.29-12.96 7.58-25.57 17.19-35.33 29.43l.06-.3c-1.27.94-2.56 1.87-3.84 2.83z" style="fill:#dcb773;fill-rule:nonzero"/>
            <path d="M427.25 581.31c5.97 6.89 11.96 13.78 10.41 23.95-14.32 3.44-24.56 14.02-36.7 21.27-7.55 4.51-11.25 4.76-13.78-4.77-5.92-22.35-12.08-44.65-19.06-66.67-3.37-10.67 3.11-10.63 9.83-11.48 16.42 12.58 32.86 25.14 49.3 37.71zm94.04 23.95c-1.59-10.32 4.59-17.21 10.69-24.13 16.34-12.51 32.67-25.01 49.02-37.52 8.86.34 12.69 2.83 9.3 13.18-6.83 20.82-12.43 42.07-17.9 63.32-2.83 10.93-6.76 11.31-15.93 5.47-11.38-7.23-21.32-17.28-35.18-20.31z" style="fill:#bfe4fb;fill-rule:nonzero"/>
            <path d="M445.41 620.14c12 11.96 15.02 24.71 8.2 41.36-11.2 27.39-17.13 56.75-29.81 83.67-75.34-.04-150.66-.66-225.98.3-17.51.22-19.9-6.37-17.9-21.04 10-73.32 78.6-151.18 151.18-171.55 10.82-3.03 15.82-1.29 18.93 10.63 8.56 32.82 18.65 65.25 28.87 100.35 23.03-15.17 44.77-29.45 66.5-43.72zm89.74 125.05c-13.99-30.89-22.6-63.66-33.2-95.71-3.91-11.87 4.08-20.97 11.59-29.34 21.31 14.06 42.63 28.14 66.43 43.85 9.25-31.88 17.88-61.86 26.64-91.78 7.15-24.41 8.07-25.18 31.3-15.75 75.81 30.84 122.6 86.44 140.31 166.31 4.44 20 2.17 22.26-18.95 22.28-74.7.06-149.41.08-224.13.13z" style="fill:#c0e6fd;fill-rule:nonzero"/>
            <path d="m455.85 580.43 3.84 2.83c-1.29-.95-2.57-1.89-3.84-2.83zm43.4 2.83 3.84-2.83c-1.27.94-2.56 1.87-3.84 2.83z" style="fill:#977c47;fill-rule:nonzero"/>
        </g>
    </g>
</svg>
